<svg width="45" height="45" viewBox="0 0 45 45" fill="none" xmlns="http://www.w3.org/2000/svg">
<path d="M43.4624 35.9733L35.8608 28.3717L30.0138 25.956C31.9607 23.1874 33.0037 19.8845 32.9999 16.5C32.9999 7.40183 25.5981 0 16.5 0C7.40183 0 0 7.40183 0 16.5C0 25.5981 7.40183 32.9999 16.5 32.9999C19.914 33.0038 23.2442 31.9428 26.0267 29.9646L28.4361 35.7958L36.0374 43.3978C36.5249 43.8853 37.1037 44.2721 37.7406 44.5359C38.3776 44.7998 39.0603 44.9356 39.7497 44.9356C40.4392 44.9357 41.1219 44.7999 41.7589 44.5361C42.3959 44.2722 42.9746 43.8855 43.4622 43.398C43.9497 42.9105 44.3364 42.3318 44.6003 41.6948C44.8642 41.0579 45 40.3752 45 39.6857C45 38.9963 44.8642 38.3136 44.6004 37.6766C44.3366 37.0396 43.9499 36.4608 43.4624 35.9733ZM2.99999 16.5C2.99999 9.05623 9.05623 2.99999 16.5 2.99999C23.9437 2.99999 29.9999 9.05623 29.9999 16.5C29.9999 23.9437 23.9437 29.9999 16.5 29.9999C9.05623 29.9999 2.99999 23.9437 2.99999 16.5ZM41.3409 41.2765C40.9186 41.6979 40.3465 41.9345 39.7499 41.9345C39.1534 41.9345 38.5812 41.6979 38.1589 41.2765L30.9803 34.0979L28.7402 28.6759L34.1624 30.916L41.3411 38.0946C41.7624 38.5169 41.999 39.0891 41.9989 39.6856C41.9989 40.2821 41.7623 40.8543 41.3409 41.2765Z" fill="#2C3333"/>
</svg>
